{
	"asset":{
		"generator":"Khronos glTF Blender I/O v4.3.47",
		"version":"2.0"
	},
	"scene":0,
	"scenes":[
		{
			"name":"Scene",
			"nodes":[
				0,
				1,
				2,
				3,
				4
			]
		}
	],
	"nodes":[
		{
			"mesh":0,
			"name":"Platform",
			"translation":[
				0,
				-0.39593741297721863,
				-9.004502296447754
			]
		},
		{
			"mesh":1,
			"name":"Screen",
			"translation":[
				2.807520866394043,
				4.399906158447266,
				-6.875075817108154
			]
		},
		{
			"mesh":2,
			"name":"Roof.002",
			"translation":[
				0,
				6.5232133865356445,
				-7.0326995849609375
			]
		},
		{
			"mesh":3,
			"name":"Wall-Plane",
			"rotation":[
				0.7071068286895752,
				0,
				0,
				0.7071068286895752
			],
			"scale":[
				8.995260238647461,
				8.995260238647461,
				8.995260238647461
			],
			"translation":[
				0,
				5.958163261413574,
				5.478424549102783
			]
		},
		{
			"mesh":4,
			"name":"Train-Complete",
			"translation":[
				20.08852195739746,
				2.260924816131592,
				0
			]
		}
	],
	"animations":[
		{
			"channels":[
				{
					"sampler":0,
					"target":{
						"node":4,
						"path":"translation"
					}
				}
			],
			"name":"Train-CompleteAction.001",
			"samplers":[
				{
					"input":20,
					"interpolation":"LINEAR",
					"output":21
				}
			]
		}
	],
	"materials":[
		{
			"doubleSided":true,
			"name":"Material.003",
			"pbrMetallicRoughness":{
				"baseColorFactor":[
					0.8000229597091675,
					0.5762749910354614,
					0.22160089015960693,
					1
				],
				"metallicFactor":0,
				"roughnessFactor":0.5
			}
		},
		{
			"doubleSided":true,
			"name":"Material.004",
			"pbrMetallicRoughness":{
				"baseColorFactor":[
					0.5171764492988586,
					0.692702054977417,
					0.800070583820343,
					1
				],
				"metallicFactor":0,
				"roughnessFactor":0.5
			}
		},
		{
			"doubleSided":true,
			"name":"Material.002",
			"pbrMetallicRoughness":{
				"baseColorFactor":[
					0.8001017570495605,
					0.35361719131469727,
					0.32701894640922546,
					1
				],
				"metallicFactor":0,
				"roughnessFactor":0.5
			}
		},
		{
			"doubleSided":true,
			"name":"Material.001",
			"pbrMetallicRoughness":{
				"baseColorFactor":[
					0.6683412790298462,
					0.7602985501289368,
					0.4496273994445801,
					1
				],
				"metallicFactor":0,
				"roughnessFactor":0.5
			}
		},
		{
			"doubleSided":true,
			"name":"Material",
			"pbrMetallicRoughness":{
				"baseColorFactor":[
					0.8009309768676758,
					0.20974013209342957,
					0.7989955544471741,
					1
				],
				"metallicFactor":0,
				"roughnessFactor":0.5
			}
		}
	],
	"meshes":[
		{
			"name":"Cube.001",
			"primitives":[
				{
					"attributes":{
						"POSITION":0,
						"NORMAL":1,
						"TEXCOORD_0":2
					},
					"indices":3,
					"material":0
				}
			]
		},
		{
			"name":"Cube.018",
			"primitives":[
				{
					"attributes":{
						"POSITION":4,
						"NORMAL":5,
						"TEXCOORD_0":6
					},
					"indices":7,
					"material":1
				}
			]
		},
		{
			"name":"Cube.017",
			"primitives":[
				{
					"attributes":{
						"POSITION":8,
						"NORMAL":9,
						"TEXCOORD_0":10
					},
					"indices":11,
					"material":2
				}
			]
		},
		{
			"name":"Plane",
			"primitives":[
				{
					"attributes":{
						"POSITION":12,
						"NORMAL":13,
						"TEXCOORD_0":14
					},
					"indices":15,
					"material":3
				}
			]
		},
		{
			"name":"Cube.014",
			"primitives":[
				{
					"attributes":{
						"POSITION":16,
						"NORMAL":17,
						"TEXCOORD_0":18
					},
					"indices":19,
					"material":4
				}
			]
		}
	],
	"accessors":[
		{
			"bufferView":0,
			"componentType":5126,
			"count":56,
			"max":[
				10.951922416687012,
				0.5772727727890015,
				6.288647651672363
			],
			"min":[
				-10.951922416687012,
				-1.4227272272109985,
				-6.288647651672363
			],
			"type":"VEC3"
		},
		{
			"bufferView":1,
			"componentType":5126,
			"count":56,
			"type":"VEC3"
		},
		{
			"bufferView":2,
			"componentType":5126,
			"count":56,
			"type":"VEC2"
		},
		{
			"bufferView":3,
			"componentType":5123,
			"count":108,
			"type":"SCALAR"
		},
		{
			"bufferView":4,
			"componentType":5126,
			"count":432,
			"max":[
				1.2265410423278809,
				1.256559133529663,
				0.15319620072841644
			],
			"min":[
				-1.2264891862869263,
				-0.7662600874900818,
				-0.075116366147995
			],
			"type":"VEC3"
		},
		{
			"bufferView":5,
			"componentType":5126,
			"count":432,
			"type":"VEC3"
		},
		{
			"bufferView":6,
			"componentType":5126,
			"count":432,
			"type":"VEC2"
		},
		{
			"bufferView":7,
			"componentType":5123,
			"count":828,
			"type":"SCALAR"
		},
		{
			"bufferView":8,
			"componentType":5126,
			"count":24,
			"max":[
				9.366619110107422,
				1,
				1.0000004768371582
			],
			"min":[
				-9.366619110107422,
				-1,
				-1
			],
			"type":"VEC3"
		},
		{
			"bufferView":9,
			"componentType":5126,
			"count":24,
			"type":"VEC3"
		},
		{
			"bufferView":10,
			"componentType":5126,
			"count":24,
			"type":"VEC2"
		},
		{
			"bufferView":11,
			"componentType":5123,
			"count":36,
			"type":"SCALAR"
		},
		{
			"bufferView":12,
			"componentType":5126,
			"count":4,
			"max":[
				2.3228602409362793,
				1.489057588344167e-08,
				0.9027257561683655
			],
			"min":[
				-2.3228602409362793,
				-1.489057588344167e-08,
				-0.9027257561683655
			],
			"type":"VEC3"
		},
		{
			"bufferView":13,
			"componentType":5126,
			"count":4,
			"type":"VEC3"
		},
		{
			"bufferView":14,
			"componentType":5126,
			"count":4,
			"type":"VEC2"
		},
		{
			"bufferView":15,
			"componentType":5123,
			"count":6,
			"type":"SCALAR"
		},
		{
			"bufferView":16,
			"componentType":5126,
			"count":3621,
			"max":[
				6.944125652313232,
				2.3193793296813965,
				2.499011993408203
			],
			"min":[
				-6.944124698638916,
				-2.4496631622314453,
				-2.499011278152466
			],
			"type":"VEC3"
		},
		{
			"bufferView":17,
			"componentType":5126,
			"count":3621,
			"type":"VEC3"
		},
		{
			"bufferView":18,
			"componentType":5126,
			"count":3621,
			"type":"VEC2"
		},
		{
			"bufferView":19,
			"componentType":5123,
			"count":8172,
			"type":"SCALAR"
		},
		{
			"bufferView":20,
			"componentType":5126,
			"count":384,
			"max":[
				16
			],
			"min":[
				0.041666666666666664
			],
			"type":"SCALAR"
		},
		{
			"bufferView":21,
			"componentType":5126,
			"count":384,
			"type":"VEC3"
		}
	],
	"bufferViews":[
		{
			"buffer":0,
			"byteLength":672,
			"byteOffset":0,
			"target":34962
		},
		{
			"buffer":0,
			"byteLength":672,
			"byteOffset":672,
			"target":34962
		},
		{
			"buffer":0,
			"byteLength":448,
			"byteOffset":1344,
			"target":34962
		},
		{
			"buffer":0,
			"byteLength":216,
			"byteOffset":1792,
			"target":34963
		},
		{
			"buffer":0,
			"byteLength":5184,
			"byteOffset":2008,
			"target":34962
		},
		{
			"buffer":0,
			"byteLength":5184,
			"byteOffset":7192,
			"target":34962
		},
		{
			"buffer":0,
			"byteLength":3456,
			"byteOffset":12376,
			"target":34962
		},
		{
			"buffer":0,
			"byteLength":1656,
			"byteOffset":15832,
			"target":34963
		},
		{
			"buffer":0,
			"byteLength":288,
			"byteOffset":17488,
			"target":34962
		},
		{
			"buffer":0,
			"byteLength":288,
			"byteOffset":17776,
			"target":34962
		},
		{
			"buffer":0,
			"byteLength":192,
			"byteOffset":18064,
			"target":34962
		},
		{
			"buffer":0,
			"byteLength":72,
			"byteOffset":18256,
			"target":34963
		},
		{
			"buffer":0,
			"byteLength":48,
			"byteOffset":18328,
			"target":34962
		},
		{
			"buffer":0,
			"byteLength":48,
			"byteOffset":18376,
			"target":34962
		},
		{
			"buffer":0,
			"byteLength":32,
			"byteOffset":18424,
			"target":34962
		},
		{
			"buffer":0,
			"byteLength":12,
			"byteOffset":18456,
			"target":34963
		},
		{
			"buffer":0,
			"byteLength":43452,
			"byteOffset":18468,
			"target":34962
		},
		{
			"buffer":0,
			"byteLength":43452,
			"byteOffset":61920,
			"target":34962
		},
		{
			"buffer":0,
			"byteLength":28968,
			"byteOffset":105372,
			"target":34962
		},
		{
			"buffer":0,
			"byteLength":16344,
			"byteOffset":134340,
			"target":34963
		},
		{
			"buffer":0,
			"byteLength":1536,
			"byteOffset":150684
		},
		{
			"buffer":0,
			"byteLength":4608,
			"byteOffset":152220
		}
	],
	"buffers":[
		{
			"byteLength":156828,
			"uri":"data:application/octet-stream;base64,"
		}
	]
}
